<svg xmlns="http://www.w3.org/2000/svg" width="1024" height="1024" viewBox="0 0 1024 1024" version="1.1">
	<path d="M 384.500 234.997 C 352.769 235.832, 342.864 236.959, 326.500 241.597 C 305.976 247.415, 289.754 256.992, 274.373 272.373 C 254.544 292.202, 244.169 313.451, 239.287 344.235 C 237.627 354.698, 237.500 366.538, 237.500 510.500 C 237.500 671.500, 237.471 670.208, 241.605 691 C 246.954 717.896, 262.141 743.404, 282.647 759.933 C 292.742 768.070, 299.365 772.090, 310.794 777.017 C 326.630 783.844, 342.001 787.235, 365 788.974 C 383.274 790.356, 639.766 790.342, 658.500 788.958 C 691.354 786.530, 711.882 780.263, 732.657 766.317 C 749.313 755.136, 762.324 739.981, 771.991 720.500 C 780.827 702.695, 784.258 688.201, 785.999 661.312 C 787.311 641.058, 787.290 377.402, 785.975 360 C 783.662 329.392, 777.813 309.925, 765.242 291 C 743.682 258.541, 712.128 240.794, 667.500 236.026 C 655.065 234.697, 427.340 233.869, 384.500 234.997 M 375.500 380.142 C 360.807 382.008, 343.314 388.563, 329.947 397.210 C 298.385 417.627, 280.164 455.302, 283.900 492.418 C 285.190 505.239, 286.920 512.281, 291.371 522.834 C 303.776 552.247, 330.640 575.487, 361.696 583.672 C 373.793 586.860, 397.899 587.973, 412.389 586.014 C 427.271 584.002, 443.934 578.666, 460.679 570.552 C 479.021 561.664, 490.515 554.758, 515.500 537.615 C 525.950 530.445, 541.475 519.903, 550 514.189 C 558.525 508.474, 565.647 503.659, 565.827 503.489 C 566.007 503.318, 559.194 498.494, 550.688 492.769 L 535.221 482.358 525.861 489.525 C 494.210 513.759, 454.988 537.554, 431.105 547.011 C 415.382 553.237, 404.195 555.282, 389 554.709 C 374.693 554.170, 367.913 552.568, 356.500 547.028 C 341.449 539.723, 330.534 528.562, 322.928 512.700 C 306.159 477.729, 320.991 436.547, 356.508 419.464 C 367.961 413.956, 377.279 411.996, 391.910 412.022 C 416.348 412.064, 437.817 419.584, 468.354 438.799 C 473.774 442.210, 478.610 445, 479.102 445 C 479.593 445, 484.609 440.695, 490.248 435.434 C 495.887 430.172, 502.841 423.985, 505.703 421.684 C 508.564 419.383, 510.927 417.227, 510.953 416.892 C 510.979 416.558, 508.336 416.006, 505.079 415.666 C 498.185 414.945, 493.257 413.116, 483.533 407.670 C 460.198 394.598, 447.748 388.954, 432.403 384.490 C 415.304 379.515, 393.531 377.852, 375.500 380.142 M 618 379.627 C 577.173 384.795, 541.038 405.675, 499.430 448.140 C 480.517 467.442, 466.737 483.362, 455.622 498.750 L 451.830 504 467.082 504 L 482.334 504 493.417 496.577 C 500.521 491.818, 508.988 484.802, 517 477.034 C 552.108 442.995, 570.819 429.175, 594.768 419.593 C 620.292 409.381, 646.397 409.302, 667.500 419.372 C 696.215 433.075, 712.717 465.460, 706.565 496.035 C 704.503 506.282, 698.016 520.246, 691.613 528.219 C 685.812 535.441, 674.567 543.945, 664.943 548.387 C 646.491 556.903, 623.374 557.230, 600 549.306 C 590.909 546.224, 572.972 537.363, 563.719 531.383 C 559.989 528.972, 556.597 527, 556.182 527 C 555.766 527, 547.646 532.383, 538.138 538.962 C 522.073 550.078, 521.050 550.968, 523.675 551.551 C 530.371 553.036, 536.129 555.309, 541.621 558.636 C 558.845 569.067, 580.896 578.692, 597.712 583.117 C 608.077 585.845, 611.613 586.281, 627 586.728 C 646.735 587.301, 656.024 586.072, 670.885 580.923 C 697.364 571.748, 719.362 551.811, 731.143 526.313 C 752.485 480.118, 736.678 425.276, 693.897 397.093 C 675.988 385.295, 658.647 380.029, 636 379.514 C 628.025 379.332, 619.925 379.383, 618 379.627" stroke="none" fill="#000000" fill-rule="evenodd"/>
</svg>