<svg xmlns="http://www.w3.org/2000/svg" width="470" height="465" viewBox="0 0 470 465" version="1.1">
	<path d="M 0 232.502 L 0 465.004 235.250 464.752 L 470.500 464.500 470.752 232.250 L 471.004 0 235.502 0 L 0 0 0 232.502 M 0.492 233 C 0.492 360.875, 0.608 413.188, 0.750 349.250 C 0.892 285.313, 0.892 180.688, 0.750 116.750 C 0.608 52.813, 0.492 105.125, 0.492 233 M 97.655 102.533 C 56.061 110.384, 23.804 139.938, 13.301 179.817 C 11.175 187.887, 10.739 191.832, 10.685 203.500 C 10.649 211.200, 11.182 220.200, 11.870 223.500 C 18.778 256.638, 39.141 283.044, 69.543 298.286 C 94.071 310.583, 129.226 312.391, 160.890 302.984 C 185.053 295.806, 206.703 283.870, 252.500 252.478 C 269.550 240.791, 285.637 229.943, 288.250 228.372 C 290.863 226.800, 292.984 225.286, 292.966 225.007 C 292.947 224.728, 286 219.880, 277.528 214.234 L 262.125 203.967 251.813 211.829 C 216.846 238.486, 174.156 263.726, 151.211 271.309 C 123.215 280.562, 96.898 278.161, 76 264.447 C 55.451 250.963, 42.964 228.192, 43.017 204.303 C 43.089 172.158, 64.682 145.121, 97.709 135.823 C 107.924 132.947, 127.589 132.769, 139.500 135.444 C 157.126 139.404, 175.898 148.065, 199.687 163.213 L 205.874 167.153 221.954 152.826 L 238.035 138.500 231.230 137.352 C 222.688 135.912, 219.793 134.692, 204.701 126.177 C 185.009 115.067, 169.708 108.660, 152.571 104.349 C 144.056 102.207, 139.642 101.756, 124 101.434 C 110.473 101.155, 103.391 101.451, 97.655 102.533 M 341.500 101.674 C 323.280 103.948, 299.303 112.925, 281.043 124.310 C 251.434 142.771, 212.995 179.854, 185.316 216.661 L 179.246 224.732 194.051 225.437 L 208.856 226.142 219.641 218.905 C 226.994 213.972, 235.531 206.749, 246.463 196.213 C 280.537 163.373, 299.132 149.982, 323.621 140.649 C 337.437 135.384, 345.865 133.780, 360 133.726 C 369.936 133.689, 374.127 134.132, 380.432 135.886 C 401.098 141.638, 417.392 154.353, 426.161 171.573 C 432.619 184.255, 434.378 191.274, 434.416 204.500 C 434.453 217.489, 432.782 224.651, 426.854 236.910 C 423.595 243.651, 421.072 247.045, 414.144 254.009 C 401.261 266.959, 389.151 273.267, 372 275.963 C 348.584 279.644, 321.209 272.146, 292.743 254.255 L 283.136 248.217 265.592 260.331 L 248.047 272.445 253.824 274.027 C 257.001 274.897, 267.228 279.714, 276.550 284.733 C 311.984 303.810, 335.217 310.072, 365.407 308.685 C 394.597 307.343, 417.194 297.519, 437.773 277.223 C 471.428 244.033, 477.162 189.494, 451.201 149.500 C 443.770 138.052, 436.881 130.567, 426.756 122.937 C 412.954 112.537, 396.581 105.351, 380.119 102.468 C 372.484 101.131, 349.619 100.661, 341.500 101.674" stroke="none" fill="#000000" fill-rule="evenodd"/>
</svg>